<svg width="10" height="16" viewBox="0 0 10 16" fill="none" xmlns="http://www.w3.org/2000/svg">
<path fill-rule="evenodd" clip-rule="evenodd" d="M9 0H1C0.27 0 0 0.27 0 1V16L5 12.91L10 16V1C10 0.27 9.73 0 9 0ZM8.22001 4.25L6.36001 5.61L7.08001 7.77C7.14001 7.99 7.06001 8.05 6.88001 7.94L5.00001 6.6L3.12001 7.94C2.93001 8.05 2.87001 7.99 2.92001 7.77L3.64001 5.61L1.78001 4.25C1.61001 4.09 1.64001 4.02 1.87001 4.02L4.17001 3.99L4.87001 1.83H5.12001L5.82001 3.99L8.12001 4.02C8.35001 4.02 8.39001 4.1 8.21001 4.25H8.22001Z" fill="#1B1F23"/>
</svg>
