<svg width="16" height="16" viewBox="0 0 16 16" fill="none" xmlns="http://www.w3.org/2000/svg">
<path fill-rule="evenodd" clip-rule="evenodd" d="M11 10H14V9H11V8L14.17 6.97L13.83 6.03L11 7V6C11 5.45 10.55 5 10 5V4C10 3.52 9.64 3.12 9.17 3.03L10.2 2H12V1H9.8L7.8 3H7.21L5.2 1H3V2H4.8L5.83 3.03C5.36 3.12 5 3.51 5 4V5C4.45 5 4 5.45 4 6V7L1.17 6.03L0.830002 6.97L4 8V9H1V10H4V11L0.830002 12.03L1.17 12.97L4 12V13C4 13.55 4.45 14 5 14H6L7 13V6H8V13L9 14H10C10.55 14 11 13.55 11 13V12L13.83 12.97L14.17 12.03L11 11V10ZM9.00002 5H6.00002V4H9.00002V5Z" fill="#1B1F23"/>
</svg>
