<svg width="14" height="16" viewBox="0 0 14 16" fill="none" xmlns="http://www.w3.org/2000/svg">
<path fill-rule="evenodd" clip-rule="evenodd" d="M7 1C3.14 1 0 4.14 0 8C0 11.86 3.14 15 7 15C10.86 15 14 11.86 14 8C14 4.14 10.86 1 7 1ZM6.99999 2.3C8.29999 2.3 9.49999 2.74 10.47 3.47L2.46999 11.47C1.73999 10.5 1.29999 9.3 1.29999 8C1.29999 4.86 3.85999 2.3 6.99999 2.3ZM7.00003 13.71C5.70003 13.71 4.50003 13.27 3.53003 12.54L11.53 4.54C12.26 5.51 12.7 6.71 12.7 8.01C12.7 11.15 10.14 13.71 7.00003 13.71Z" fill="#1B1F23"/>
</svg>
