<svg width="12" height="16" viewBox="0 0 12 16" fill="none" xmlns="http://www.w3.org/2000/svg">
<path fill-rule="evenodd" clip-rule="evenodd" d="M5.05001 0.310003C5.86001 2.48 5.46001 3.69 4.53001 4.62C3.55001 5.66999 1.98002 6.44999 0.900018 7.97999C-0.549979 10.03 -0.799979 14.51 4.43001 15.68C2.23002 14.52 1.76002 11.16 4.13001 9.06999C3.52001 11.1 4.66001 12.4 6.07001 11.93C7.46001 11.46 8.37001 12.46 8.34001 13.6C8.32001 14.38 8.03001 15.04 7.21001 15.41C10.63 14.82 11.99 11.99 11.99 9.84999C11.99 7.00999 9.46001 6.62999 10.74 4.24C9.22001 4.37 8.71001 5.36999 8.85001 6.98999C8.94001 8.06999 7.83001 8.78999 6.99001 8.31999C6.32001 7.90999 6.33001 7.12999 6.93001 6.53999C8.18001 5.30999 8.68001 2.45 5.05001 0.320003L5.03001 0.300003L5.05001 0.310003Z" fill="#1B1F23"/>
</svg>
