<svg width="14" height="16" viewBox="0 0 14 16" fill="none" xmlns="http://www.w3.org/2000/svg">
<path fill-rule="evenodd" clip-rule="evenodd" d="M14 8.76999V7.16999L12.06 6.52999L11.61 5.43999L12.49 3.59999L11.36 2.46999L9.55 3.37999L8.46 2.92999L7.77 1.00999H6.17L5.54 2.94999L4.43 3.39999L2.59 2.51999L1.46 3.64999L2.37 5.45999L1.92 6.54999L0 7.22999V8.81999L1.94 9.45999L2.39 10.55L1.51 12.39L2.64 13.52L4.45 12.61L5.54 13.06L6.23 14.98H7.82L8.45 13.04L9.56 12.59L11.4 13.47L12.53 12.34L11.61 10.53L12.08 9.43999L14 8.74999V8.76999ZM7 11C5.34 11 4 9.65999 4 7.99999C4 6.33999 5.34 4.99999 7 4.99999C8.66 4.99999 10 6.33999 10 7.99999C10 9.65999 8.66 11 7 11Z" fill="#1B1F23"/>
</svg>
