<svg width="14" height="16" viewBox="0 0 14 16" fill="none" xmlns="http://www.w3.org/2000/svg">
<path fill-rule="evenodd" clip-rule="evenodd" d="M13 4H11.62C11.81 3.67 11.95 3.33 11.98 3.09C12.04 2.42 11.87 1.87 11.46 1.48C11.1 1.1 10.65 1 10.1 1C10.05 1 10.02 1 9.99 1C9.46 1.02 8.88 1.25 8.46 1.58C8.04 1.91 7.73 2.3 7.49 2.78C7.26 2.3 6.94 1.9 6.52 1.58C6.1 1.26 5.52 1 4.99 1C4.97 1 4.96 1 4.96 1C4.4 1 3.9 1.09 3.52 1.48C3.11 1.87 2.94 2.42 3 3.09C3.03 3.32 3.17 3.67 3.36 4H1.98C1.43 4 0.98 4.45 0.98 5V8H1.98V13C1.98 13.55 2.43 14 2.98 14H11.98C12.53 14 12.98 13.55 12.98 13V8H13.98V5C13.98 4.45 13.53 4 12.98 4H13ZM8.22 3.12C8.39 2.76 8.64 2.45 8.97 2.2C9.27 1.97 9.69 1.81 10.02 1.79H10.11C10.56 1.79 10.77 1.9 10.91 2.04C11.05 2.18 11.24 2.43 11.21 2.99C11.16 3.18 10.96 3.6 10.71 3.99H7.81L8.22 3.11V3.12ZM4.09 2.04C4.22 1.91 4.4 1.79 5 1.79C5.31 1.79 5.72 1.96 6.03 2.2C6.36 2.45 6.61 2.75 6.78 3.12L7.2 4H4.3C4.05 3.61 3.85 3.19 3.8 3C3.77 2.44 3.96 2.19 4.1 2.05L4.09 2.04ZM7 12.99H3V8H7V13V12.99ZM7 6.99H2V5H7V7V6.99ZM12 12.99H8V8H12V13V12.99ZM13 6.99H8V5H13V7V6.99Z" fill="#1B1F23"/>
</svg>
