<svg width="16" height="16" viewBox="0 0 16 16" fill="none" xmlns="http://www.w3.org/2000/svg">
<path fill-rule="evenodd" clip-rule="evenodd" d="M9 2H15C15.55 2 16 2.45 16 3V13C16 13.55 15.55 14 15 14H9C9 14.5523 8.55229 15 8 15C7.44771 15 7 14.5523 7 14H1C0.449997 14 0 13.55 0 13V3C0 2.45 0.449997 2 1 2H7C7 1.44772 7.44771 1 8 1C8.55229 1 9 1.44772 9 2ZM15 3V13H1V3H15ZM12.5 7C13.3284 7 14 6.32843 14 5.5C14 4.67157 13.3284 4 12.5 4C11.6716 4 11 4.67157 11 5.5C11 6.32843 11.6716 7 12.5 7Z" fill="#1B1F23"/>
</svg>
