<svg width="14" height="16" viewBox="0 0 14 16" fill="none" xmlns="http://www.w3.org/2000/svg">
<path fill-rule="evenodd" clip-rule="evenodd" d="M6.30002 5.69001C6.11002 5.50001 6.02002 5.27001 6.02002 4.99001C6.02002 4.71001 6.11002 4.47001 6.30002 4.29001C6.49002 4.11001 6.72002 4.01001 7.00002 4.01001C7.28002 4.01001 7.52002 4.10001 7.70002 4.29001C7.88002 4.48001 7.98002 4.71001 7.98002 4.99001C7.98002 5.27001 7.89002 5.51001 7.70002 5.69001C7.51002 5.87001 7.28002 5.99001 7.00002 5.99001C6.72002 5.99001 6.48002 5.88001 6.30002 5.69001ZM8 7.99001C7.98 7.74001 7.89 7.51001 7.69 7.30001C7.49 7.11001 7.27 7.00001 7 6.99001H6C5.73 7.01001 5.52 7.12001 5.31 7.30001C5.11 7.50001 5.01 7.74001 5 7.99001H6V10.99C6.02 11.26 6.11 11.49 6.31 11.68C6.51 11.88 6.73 11.99 7 11.99H8C8.27 11.99 8.48 11.88 8.69 11.68C8.89 11.49 8.99 11.26 9 10.99H8V7.98001V7.99001ZM6.99999 2.30001C3.85999 2.30001 1.29999 4.84001 1.29999 7.98001C1.29999 11.12 3.85999 13.68 6.99999 13.68C10.14 13.68 12.7 11.13 12.7 7.98001C12.7 4.83001 10.14 2.29001 6.99999 2.29001V2.30001ZM7 0.980011C10.86 0.980011 14 4.12001 14 7.98001C14 11.84 10.86 14.98 7 14.98C3.14 14.98 0 11.86 0 7.98001C0 4.10001 3.14 0.980011 7 0.980011Z" fill="#1B1F23"/>
</svg>
