<svg width="13" height="16" viewBox="0 0 13 16" fill="none" xmlns="http://www.w3.org/2000/svg">
<path fill-rule="evenodd" clip-rule="evenodd" d="M12.01 13C12.01 13.59 12.01 14 11.42 14H4.6C4.01 14 4.01 13.59 4.01 13C4.01 12.41 4.01 12 4.6 12H11.41C12 12 12 12.41 12 13H12.01ZM4.6 4H11.41C12 4 12 3.59 12 3C12 2.41 12 2 11.41 2H4.6C4.01 2 4.01 2.41 4.01 3C4.01 3.59 4.01 4 4.6 4ZM11.41 7H4.6C4.01 7 4.01 7.41 4.01 8C4.01 8.59 4.01 9 4.6 9H11.41C12 9 12 8.59 12 8C12 7.41 12 7 11.41 7ZM2.01 1H1.29C0.99 1.19 0.71 1.25 0.26 1.34V2H1.01V4.14H0.17V5H3.01V4.14H2.01V1ZM2.40234 9.12C2.27344 9.12 1.81 9.16 1.6 9.19C2.13 8.63 2.74 7.94 2.74 7.3C2.72 6.52 2.18 6 1.38 6C0.79 6 0.41 6.2 0 6.64L0.58 7.22C0.77 7.03 0.96 6.84 1.22 6.84C1.5 6.84 1.7 7 1.7 7.36C1.7 7.89 0.93 8.56 0 9.42V10H3V9.12C3 9.12 2.53125 9.12 2.40234 9.12ZM2.18 12.91V12.88C2.62 12.69 2.82 12.41 2.82 12.02C2.82 11.32 2.26 10.91 1.38 10.91C0.9 10.91 0.49 11.1 0.1 11.43L0.65 12.07C0.9 11.87 1.09 11.76 1.34 11.76C1.61 11.76 1.76 11.89 1.76 12.12C1.76 12.39 1.56 12.56 0.9 12.56V13.31C1.73 13.31 1.88 13.48 1.88 13.78C1.88 14.03 1.65 14.16 1.3 14.16C1.02 14.16 0.74 14.02 0.49 13.78L0.01 14.44C0.31 14.8 0.78 15 1.42 15C2.25 15 2.95 14.59 2.95 13.84C2.95 13.34 2.64 13.03 2.18 12.9V12.91Z" fill="#1B1F23"/>
</svg>
