<svg width="16" height="16" viewBox="0 0 16 16" fill="none" xmlns="http://www.w3.org/2000/svg">
<path fill-rule="evenodd" clip-rule="evenodd" d="M8.11001 2.8C8.05001 2.78 7.97001 2.78 7.91001 2.8L0.270007 5.18C-0.0599933 5.29 -0.0599933 5.74 0.270007 5.85L2.00001 6.4V8.17C1.70001 8.34 1.50001 8.67 1.50001 9.03C1.50001 9.22 1.55001 9.39 1.64001 9.53C1.56001 9.67 1.50001 9.84 1.50001 10.03V12.61C1.50001 13.16 3.50001 13.16 3.50001 12.61V10.03C3.50001 9.84 3.45001 9.67 3.36001 9.53C3.44001 9.39 3.50001 9.22 3.50001 9.03C3.50001 8.65 3.30001 8.34 3.00001 8.17V6.72L7.89001 8.25C7.95001 8.27 8.03001 8.27 8.09001 8.25L15.73 5.87C16.06 5.76 16.06 5.31 15.73 5.2L8.10001 2.81L8.11001 2.8ZM4.00001 8L7.83001 9.19H7.81001C7.94001 9.22 8.06001 9.22 8.17001 9.19L12 8V10.5C12 11.5 10.2 12 8.00001 12C5.80001 12 4.00001 11.5 4.00001 10.5V8ZM7.02001 5.5C7.02001 5.78 7.47001 6 8.02001 6C8.57001 6 9.02001 5.78 9.02001 5.5C9.02001 5.22 8.57001 5 8.02001 5C7.47001 5 7.02001 5.22 7.02001 5.5Z" fill="#1B1F23"/>
</svg>
