<svg width="16" height="16" viewBox="0 0 16 16" fill="none" xmlns="http://www.w3.org/2000/svg">
<path fill-rule="evenodd" clip-rule="evenodd" d="M8 2.80999V13.19C8 13.86 7.19 14.19 6.72 13.72L3 9.99999H1C0.45 9.99999 0 9.54999 0 8.99999V6.99999C0 6.44999 0.45 5.99999 1 5.99999H3L6.72 2.27999C7.19 1.80999 8 2.13999 8 2.80999ZM15.53 6.02999L14.47 4.96999L12.5 6.93999L10.53 4.96999L9.47 6.02999L11.44 7.99999L9.47 9.96999L10.53 11.03L12.5 9.05999L14.47 11.03L15.53 9.96999L13.56 7.99999L15.53 6.02999Z" fill="#1B1F23"/>
</svg>
