<svg width="16" height="16" viewBox="0 0 16 16" fill="none" xmlns="http://www.w3.org/2000/svg">
<path fill-rule="evenodd" clip-rule="evenodd" d="M1 4.27001V11.74C1 12.19 1.3 12.58 1.75 12.71L8.25 14.44C8.41 14.49 8.59 14.49 8.75 14.44L15.25 12.71C15.7 12.58 16 12.19 16 11.74V4.27001C16 3.82001 15.7 3.43001 15.25 3.30001L8.75 1.56001C8.59 1.53001 8.41 1.53001 8.25 1.56001L1.75 3.30001C1.3 3.43001 1 3.82001 1 4.27001ZM8 13.36L2 11.77V5.00001L8 6.61001V13.36ZM2 4.00001L4.5 3.33001L11 5.06001L8.5 5.73001L2 4.00001ZM15 11.77L9 13.36V6.61001L11 6.06001V8.50001L13 7.97001V5.53001L15 5.00001V11.77ZM13 4.53L6.5 2.8L8.5 2.27L15 4L13 4.53Z" fill="#1B1F23"/>
</svg>
