<svg width="16" height="16" viewBox="0 0 16 16" fill="none" xmlns="http://www.w3.org/2000/svg">
<path fill-rule="evenodd" clip-rule="evenodd" d="M15.7 13.3L11.89 9.47C12.59 8.49 13 7.3 13 6C13 2.69 10.31 0 7 0C3.69 0 1 2.69 1 6C1 9.31 3.69 12 7 12C8.3 12 9.48 11.59 10.47 10.89L14.3 14.7C14.49 14.9 14.75 15 15 15C15.25 15 15.52 14.91 15.7 14.7C16.09 14.31 16.09 13.68 15.7 13.29V13.3ZM6.99999 10.7C4.40999 10.7 2.29999 8.59 2.29999 6C2.29999 3.41 4.40999 1.3 6.99999 1.3C9.58999 1.3 11.7 3.41 11.7 6C11.7 8.59 9.58999 10.7 6.99999 10.7Z" fill="#1B1F23"/>
</svg>
