<svg width="14" height="16" viewBox="0 0 14 16" fill="none" xmlns="http://www.w3.org/2000/svg">
<path fill-rule="evenodd" clip-rule="evenodd" d="M8 9L11 15H10L8 11V16H7V10L5 15H4L6 10L8 9ZM7 0H6V1H7V0ZM5 3H4V4H5V3ZM2 1H1V2H2V1ZM0.630003 9C0.410003 9.16 0.350003 9.44 0.470003 9.67L1.02 10.59C1.15 10.82 1.43 10.9 1.66 10.79L3.05 10.13L1.89 8.13L0.620003 8.99L0.630003 9ZM8.52003 3.61L2.72003 7.56L3.95003 9.7L10.28 6.67L8.51003 3.61H8.52003ZM12.74 4.89001L11.27 2.37001C11.13 2.12001 10.8 2.04001 10.55 2.20001L9.34998 3.03001L11.19 6.23001L12.52 5.59C12.79 5.46001 12.88 5.15001 12.74 4.89001Z" fill="#1B1F23"/>
</svg>
