<svg width="16" height="16" viewBox="0 0 16 16" fill="none" xmlns="http://www.w3.org/2000/svg">
<path fill-rule="evenodd" clip-rule="evenodd" d="M4.48 7.27001C4.74 7.53001 5.76 8.60001 5.76 8.60001L6.32 8.02001L5.44 7.11001L7.13 5.31001C7.13 5.31001 6.37 4.57001 6.7 4.86001C7.02 3.67001 6.73 2.35001 5.83 1.42001C4.93 0.500006 3.66 0.200006 2.52 0.510006L4.45 2.51001L3.94 4.47001L2.05 4.99001L0.12 2.99001C-0.19 4.17001 0.1 5.48001 1 6.40001C1.94 7.38001 3.29 7.66001 4.48 7.27001ZM10.92 9.21001L8.59 11.51L12.43 15.49C12.74 15.82 13.16 15.98 13.57 15.98C13.98 15.98 14.39 15.82 14.71 15.49C15.34 14.84 15.34 13.79 14.71 13.14L10.92 9.21001ZM16 2.53L13.55 0L6.33 7.46L7.21 8.37L2.9 12.83L1.91 13.36L0.519998 15.63L0.869998 16L3.07 14.56L3.58 13.54L7.9 9.08L8.78 9.99L16 2.53Z" fill="#1B1F23"/>
</svg>
