<svg width="16" height="16" viewBox="0 0 16 16" fill="none" xmlns="http://www.w3.org/2000/svg">
<path fill-rule="evenodd" clip-rule="evenodd" d="M15.6702 7.06558L14.5909 5.72642C14.421 5.50656 14.3111 5.24672 14.2811 4.9569L14.0912 3.25796C14.0112 2.5584 13.4616 2.00874 12.762 1.92879L11.0631 1.73891C10.7633 1.70893 10.5034 1.57901 10.2836 1.40912L8.94441 0.329794C8.39475 -0.109931 7.61524 -0.109931 7.06558 0.329794L5.72642 1.40912C5.50656 1.57901 5.24672 1.68894 4.9569 1.71893L3.25796 1.90881C2.5584 1.98876 2.00874 2.53841 1.92879 3.23798L1.73891 4.93691C1.70893 5.23673 1.57901 5.49656 1.40912 5.71643L0.329794 7.05559C-0.109931 7.60525 -0.109931 8.38476 0.329794 8.93442L1.40912 10.2736C1.57901 10.4934 1.68894 10.7533 1.71893 11.0431L1.90881 12.742C1.98876 13.4416 2.53841 13.9913 3.23798 14.0712L4.93691 14.2611C5.23673 14.2911 5.49656 14.421 5.71643 14.5909L7.05559 15.6702C7.60525 16.1099 8.38476 16.1099 8.93442 15.6702L10.2736 14.5909C10.4934 14.421 10.7533 14.3111 11.0431 14.2811L12.742 14.0912C13.4416 14.0112 13.9913 13.4616 14.0712 12.762L14.2611 11.0631C14.2911 10.7633 14.421 10.5034 14.5909 10.2836L15.6702 8.94441C16.1099 8.39475 16.1099 7.61524 15.6702 7.06558ZM6.49999 12.01L2.99999 8.51L4.49999 7.01L6.49999 9.01L11.5 4.01L13 5.56L6.49999 12.01Z" fill="#1B1F23"/>
</svg>
